<?xml version="1.0" encoding="UTF-8"?>
<svg width="16px" height="15px" viewBox="0 0 16 15" version="1.1" xmlns="http://www.w3.org/2000/svg" xmlns:xlink="http://www.w3.org/1999/xlink">
    <!-- Generator: Sketch 49.3 (51167) - http://www.bohemiancoding.com/sketch -->
    <title>Combined Shape</title>
    <desc>Created with Sketch.</desc>
    <defs></defs>
    <g id="Page-1" stroke="none" stroke-width="1" fill="none" fill-rule="evenodd">
        <g id="iPhone-8-Copy" transform="translate(-330.000000, -202.000000)" stroke="#FFFFFF">
            <g id="Group-2" transform="translate(0.000000, 94.000000)">
                <g id="Group" transform="translate(328.000000, 106.000000)">
                    <path d="M12.0833333,7.19168 L15.8333333,7.19168 C16.7538079,7.19168 17.5,7.93787208 17.5,8.85834667 L17.5,10.6658868 C17.5,11.1189966 17.3768554,11.5635876 17.1437323,11.9521261 L15.4855042,14.7158396 C15.1842988,15.2178486 14.6417875,15.5250133 14.0563494,15.5250133 L9.16666667,15.5250133 C8.24619208,15.5250133 7.5,14.7788212 7.5,13.8583467 L7.5,8.85834667 L7.5,7.91577987 C7.5,7.44790686 7.66403244,6.99484107 7.96355744,6.63541107 L11.058471,2.92151481 C11.3992923,2.51252923 12.0007883,2.44227126 12.4266923,2.76169921 L12.5,2.81668 C12.9976586,3.18992393 13.2006462,3.83974129 13.0039294,4.42989177 L12.0833333,7.19168 Z M3.5,6.35834667 L4.83333333,6.35834667 C5.38561808,6.35834667 5.83333333,6.80606192 5.83333333,7.35834667 L5.83333333,15.3583467 C5.83333333,15.9106314 5.38561808,16.3583467 4.83333333,16.3583467 L3.5,16.3583467 C2.94771525,16.3583467 2.5,15.9106314 2.5,15.3583467 L2.5,7.35834667 C2.5,6.80606192 2.94771525,6.35834667 3.5,6.35834667 Z" id="Combined-Shape"></path>
                </g>
            </g>
        </g>
    </g>
</svg>